<?xml version="1.0" encoding="UTF-8" standalone="no"?>
<!DOCTYPE svg PUBLIC "-//W3C//DTD SVG 1.1//EN"
 "http://www.w3.org/Graphics/SVG/1.1/DTD/svg11.dtd">
<!-- Generated by graphviz version 2.40.1 (20161225.0304)
 -->
<!-- Title: %3 Pages: 1 -->
<svg width="486pt" height="848pt"
 viewBox="0.00 0.00 485.74 848.00" xmlns="http://www.w3.org/2000/svg" xmlns:xlink="http://www.w3.org/1999/xlink">
<g id="graph0" class="graph" transform="scale(1 1) rotate(0) translate(4 844)">
<title>%3</title>
<polygon fill="#ffffff" stroke="transparent" points="-4,4 -4,-844 481.7445,-844 481.7445,4 -4,4"/>
<!-- Forrester Gardens -->
<g id="node1" class="node">
<title>Forrester Gardens</title>
<ellipse fill="none" stroke="#000000" cx="281.7445" cy="-822" rx="74.187" ry="18"/>
<text text-anchor="middle" x="281.7445" y="-818.3" font-family="Times,serif" font-size="14.00" fill="#000000">Forrester Gardens</text>
</g>
<!-- Zeigler Junction -->
<g id="node13" class="node">
<title>Zeigler Junction</title>
<ellipse fill="none" stroke="#000000" cx="213.7445" cy="-735" rx="68.4888" ry="18"/>
<text text-anchor="middle" x="213.7445" y="-731.3" font-family="Times,serif" font-size="14.00" fill="#000000">Zeigler Junction</text>
</g>
<!-- Forrester Gardens&#45;&gt;Zeigler Junction -->
<g id="edge4" class="edge">
<title>Forrester Gardens&#45;&gt;Zeigler Junction</title>
<path fill="none" stroke="#000000" d="M267.6549,-803.9735C257.9258,-791.5261 244.8385,-774.782 233.995,-760.9087"/>
<polygon fill="#000000" stroke="#000000" points="236.4993,-758.4292 227.5835,-752.7057 230.9841,-762.74 236.4993,-758.4292"/>
<text text-anchor="middle" x="272.2445" y="-774.8" font-family="Times,serif" font-size="14.00" fill="#000000">1100m</text>
</g>
<!-- University Square -->
<g id="node2" class="node">
<title>University Square</title>
<ellipse fill="none" stroke="#000000" cx="402.7445" cy="-192" rx="74.9875" ry="18"/>
<text text-anchor="middle" x="402.7445" y="-188.3" font-family="Times,serif" font-size="14.00" fill="#000000">University Square</text>
</g>
<!-- University Square&#45;&gt;Forrester Gardens -->
<g id="edge3" class="edge">
<title>University Square&#45;&gt;Forrester Gardens</title>
<path fill="none" stroke="#000000" d="M415.4897,-210.0283C418.9315,-215.5808 422.3588,-221.8546 424.7445,-228 436.542,-258.3897 438.7445,-267.4007 438.7445,-300 438.7445,-735 438.7445,-735 438.7445,-735 438.7445,-776.6872 395.8727,-798.5633 354.9352,-809.9498"/>
<polygon fill="#000000" stroke="#000000" points="353.9491,-806.5897 345.1499,-812.4908 355.7086,-813.365 353.9491,-806.5897"/>
<text text-anchor="middle" x="458.2445" y="-513.8" font-family="Times,serif" font-size="14.00" fill="#000000">5000m</text>
</g>
<!-- Moore&#39;s Moor -->
<g id="node3" class="node">
<title>Moore&#39;s Moor</title>
<ellipse fill="none" stroke="#000000" cx="348.7445" cy="-300" rx="61.99" ry="18"/>
<text text-anchor="middle" x="348.7445" y="-296.3" font-family="Times,serif" font-size="14.00" fill="#000000">Moore&#39;s Moor</text>
</g>
<!-- Moore&#39;s Moor&#45;&gt;University Square -->
<g id="edge2" class="edge">
<title>Moore&#39;s Moor&#45;&gt;University Square</title>
<path fill="none" stroke="#000000" d="M357.6615,-282.166C366.2084,-265.0723 379.2293,-239.0304 389.0839,-219.3212"/>
<polygon fill="#000000" stroke="#000000" points="392.2921,-220.731 393.6338,-210.2215 386.0311,-217.6005 392.2921,-220.731"/>
<text text-anchor="middle" x="402.2445" y="-242.3" font-family="Times,serif" font-size="14.00" fill="#000000">2000m</text>
</g>
<!-- Harel Cross -->
<g id="node4" class="node">
<title>Harel Cross</title>
<ellipse fill="none" stroke="#000000" cx="173.7445" cy="-387" rx="52.7911" ry="18"/>
<text text-anchor="middle" x="173.7445" y="-383.3" font-family="Times,serif" font-size="14.00" fill="#000000">Harel Cross</text>
</g>
<!-- Harel Cross&#45;&gt;Moore&#39;s Moor -->
<g id="edge1" class="edge">
<title>Harel Cross&#45;&gt;Moore&#39;s Moor</title>
<path fill="none" stroke="#000000" d="M203.8281,-372.0442C232.6462,-357.7174 276.3411,-335.9948 308.2162,-320.1484"/>
<polygon fill="#000000" stroke="#000000" points="309.888,-323.226 317.2844,-315.6402 306.7718,-316.9578 309.888,-323.226"/>
<text text-anchor="middle" x="290.2445" y="-339.8" font-family="Times,serif" font-size="14.00" fill="#000000">1000m</text>
</g>
<!-- Petri&#39;s Palace -->
<g id="node7" class="node">
<title>Petri&#39;s Palace</title>
<ellipse fill="none" stroke="#000000" cx="73.7445" cy="-246" rx="57.6901" ry="18"/>
<text text-anchor="middle" x="73.7445" y="-242.3" font-family="Times,serif" font-size="14.00" fill="#000000">Petri&#39;s Palace</text>
</g>
<!-- Harel Cross&#45;&gt;Petri&#39;s Palace -->
<g id="edge13" class="edge">
<title>Harel Cross&#45;&gt;Petri&#39;s Palace</title>
<path fill="none" stroke="#000000" d="M137.5364,-373.8926C113.2866,-362.9931 83.2432,-344.8768 68.7445,-318 61.5862,-304.7304 62.2618,-288.0281 64.9885,-274.0518"/>
<polygon fill="#000000" stroke="#000000" points="68.4709,-274.5355 67.3775,-263.9973 61.6605,-272.9173 68.4709,-274.5355"/>
<text text-anchor="middle" x="117.2445" y="-339.8" font-family="Times,serif" font-size="14.00" fill="#000000">3500m</text>
</g>
<!-- Museum of Informatics -->
<g id="node8" class="node">
<title>Museum of Informatics</title>
<ellipse fill="none" stroke="#000000" cx="173.7445" cy="-300" rx="95.5831" ry="18"/>
<text text-anchor="middle" x="173.7445" y="-296.3" font-family="Times,serif" font-size="14.00" fill="#000000">Museum of Informatics</text>
</g>
<!-- Harel Cross&#45;&gt;Museum of Informatics -->
<g id="edge8" class="edge">
<title>Harel Cross&#45;&gt;Museum of Informatics</title>
<path fill="none" stroke="#000000" d="M173.7445,-368.9735C173.7445,-357.1918 173.7445,-341.5607 173.7445,-328.1581"/>
<polygon fill="#000000" stroke="#000000" points="177.2446,-328.0033 173.7445,-318.0034 170.2446,-328.0034 177.2446,-328.0033"/>
<text text-anchor="middle" x="193.2445" y="-339.8" font-family="Times,serif" font-size="14.00" fill="#000000">1000m</text>
</g>
<!-- Model Station North -->
<g id="node5" class="node">
<title>Model Station North</title>
<ellipse fill="none" stroke="#000000" cx="137.7445" cy="-561" rx="84.485" ry="18"/>
<text text-anchor="middle" x="137.7445" y="-557.3" font-family="Times,serif" font-size="14.00" fill="#000000">Model Station North</text>
</g>
<!-- Middle Junction -->
<g id="node11" class="node">
<title>Middle Junction</title>
<ellipse fill="none" stroke="#000000" cx="173.7445" cy="-474" rx="68.7879" ry="18"/>
<text text-anchor="middle" x="173.7445" y="-470.3" font-family="Times,serif" font-size="14.00" fill="#000000">Middle Junction</text>
</g>
<!-- Model Station North&#45;&gt;Middle Junction -->
<g id="edge16" class="edge">
<title>Model Station North&#45;&gt;Middle Junction</title>
<path fill="none" stroke="#000000" d="M145.2037,-542.9735C150.1755,-530.9585 156.8038,-514.9401 162.4213,-501.3646"/>
<polygon fill="#000000" stroke="#000000" points="165.7053,-502.5818 166.2949,-492.0034 159.2372,-499.9053 165.7053,-502.5818"/>
<text text-anchor="middle" x="174.7445" y="-513.8" font-family="Times,serif" font-size="14.00" fill="#000000">500m</text>
</g>
<!-- Zeigler Circus -->
<g id="node6" class="node">
<title>Zeigler Circus</title>
<ellipse fill="none" stroke="#000000" cx="213.7445" cy="-648" rx="61.99" ry="18"/>
<text text-anchor="middle" x="213.7445" y="-644.3" font-family="Times,serif" font-size="14.00" fill="#000000">Zeigler Circus</text>
</g>
<!-- Zeigler Circus&#45;&gt;Model Station North -->
<g id="edge15" class="edge">
<title>Zeigler Circus&#45;&gt;Model Station North</title>
<path fill="none" stroke="#000000" d="M198.3648,-630.3943C187.4149,-617.8595 172.5252,-600.8147 160.243,-586.7548"/>
<polygon fill="#000000" stroke="#000000" points="162.5771,-584.1067 153.3622,-578.8782 157.3053,-588.712 162.5771,-584.1067"/>
<text text-anchor="middle" x="196.7445" y="-600.8" font-family="Times,serif" font-size="14.00" fill="#000000">700m</text>
</g>
<!-- Zeigler Circus&#45;&gt;Middle Junction -->
<g id="edge6" class="edge">
<title>Zeigler Circus&#45;&gt;Middle Junction</title>
<path fill="none" stroke="#000000" d="M221.9595,-630.0371C230.5141,-608.7201 241.3057,-572.3672 230.7445,-543 224.749,-526.3284 212.7864,-510.8194 201.3617,-498.7448"/>
<polygon fill="#000000" stroke="#000000" points="203.5287,-495.9598 193.9998,-491.3283 198.5607,-500.8912 203.5287,-495.9598"/>
<text text-anchor="middle" x="255.2445" y="-557.3" font-family="Times,serif" font-size="14.00" fill="#000000">1000m</text>
</g>
<!-- West Junction -->
<g id="node12" class="node">
<title>West Junction</title>
<ellipse fill="none" stroke="#000000" cx="61.7445" cy="-18" rx="61.99" ry="18"/>
<text text-anchor="middle" x="61.7445" y="-14.3" font-family="Times,serif" font-size="14.00" fill="#000000">West Junction</text>
</g>
<!-- Petri&#39;s Palace&#45;&gt;West Junction -->
<g id="edge14" class="edge">
<title>Petri&#39;s Palace&#45;&gt;West Junction</title>
<path fill="none" stroke="#000000" d="M72.7828,-227.7272C70.6931,-188.0232 65.7259,-93.6466 63.2299,-46.2228"/>
<polygon fill="#000000" stroke="#000000" points="66.715,-45.8455 62.6942,-36.0433 59.7247,-46.2135 66.715,-45.8455"/>
<text text-anchor="middle" x="89.2445" y="-144.8" font-family="Times,serif" font-size="14.00" fill="#000000">2000m</text>
</g>
<!-- Turing Station -->
<g id="node9" class="node">
<title>Turing Station</title>
<ellipse fill="none" stroke="#000000" cx="173.7445" cy="-192" rx="61.99" ry="18"/>
<text text-anchor="middle" x="173.7445" y="-188.3" font-family="Times,serif" font-size="14.00" fill="#000000">Turing Station</text>
</g>
<!-- Museum of Informatics&#45;&gt;Turing Station -->
<g id="edge9" class="edge">
<title>Museum of Informatics&#45;&gt;Turing Station</title>
<path fill="none" stroke="#000000" d="M173.7445,-281.6793C173.7445,-264.821 173.7445,-239.5651 173.7445,-220.147"/>
<polygon fill="#000000" stroke="#000000" points="177.2446,-220.0501 173.7445,-210.0502 170.2446,-220.0502 177.2446,-220.0501"/>
<text text-anchor="middle" x="193.2445" y="-242.3" font-family="Times,serif" font-size="14.00" fill="#000000">3000m</text>
</g>
<!-- Model Station South -->
<g id="node10" class="node">
<title>Model Station South</title>
<ellipse fill="none" stroke="#000000" cx="173.7445" cy="-105" rx="84.485" ry="18"/>
<text text-anchor="middle" x="173.7445" y="-101.3" font-family="Times,serif" font-size="14.00" fill="#000000">Model Station South</text>
</g>
<!-- Turing Station&#45;&gt;Model Station South -->
<g id="edge10" class="edge">
<title>Turing Station&#45;&gt;Model Station South</title>
<path fill="none" stroke="#000000" d="M173.7445,-173.9735C173.7445,-162.1918 173.7445,-146.5607 173.7445,-133.1581"/>
<polygon fill="#000000" stroke="#000000" points="177.2446,-133.0033 173.7445,-123.0034 170.2446,-133.0034 177.2446,-133.0033"/>
<text text-anchor="middle" x="193.2445" y="-144.8" font-family="Times,serif" font-size="14.00" fill="#000000">2500m</text>
</g>
<!-- Model Station South&#45;&gt;West Junction -->
<g id="edge11" class="edge">
<title>Model Station South&#45;&gt;West Junction</title>
<path fill="none" stroke="#000000" d="M151.3488,-87.6033C134.2216,-74.2992 110.4395,-55.8256 91.6801,-41.2535"/>
<polygon fill="#000000" stroke="#000000" points="93.7641,-38.4405 83.7197,-35.07 89.47,-43.9686 93.7641,-38.4405"/>
<text text-anchor="middle" x="144.2445" y="-57.8" font-family="Times,serif" font-size="14.00" fill="#000000">1000m</text>
</g>
<!-- Middle Junction&#45;&gt;Harel Cross -->
<g id="edge7" class="edge">
<title>Middle Junction&#45;&gt;Harel Cross</title>
<path fill="none" stroke="#000000" d="M173.7445,-455.9735C173.7445,-444.1918 173.7445,-428.5607 173.7445,-415.1581"/>
<polygon fill="#000000" stroke="#000000" points="177.2446,-415.0033 173.7445,-405.0034 170.2446,-415.0034 177.2446,-415.0033"/>
<text text-anchor="middle" x="189.7445" y="-426.8" font-family="Times,serif" font-size="14.00" fill="#000000">500m</text>
</g>
<!-- West Junction&#45;&gt;Zeigler Junction -->
<g id="edge12" class="edge">
<title>West Junction&#45;&gt;Zeigler Junction</title>
<path fill="none" stroke="#000000" d="M40.4097,-34.8987C22.819,-50.8788 .7445,-76.5917 .7445,-105 .7445,-648 .7445,-648 .7445,-648 .7445,-680.5133 86.8757,-706.8564 149.5961,-721.7291"/>
<polygon fill="#000000" stroke="#000000" points="148.9119,-725.1633 159.4445,-724.0168 150.4958,-718.3448 148.9119,-725.1633"/>
<text text-anchor="middle" x="20.2445" y="-383.3" font-family="Times,serif" font-size="14.00" fill="#000000">2000m</text>
</g>
<!-- Zeigler Junction&#45;&gt;Zeigler Circus -->
<g id="edge5" class="edge">
<title>Zeigler Junction&#45;&gt;Zeigler Circus</title>
<path fill="none" stroke="#000000" d="M213.7445,-716.9735C213.7445,-705.1918 213.7445,-689.5607 213.7445,-676.1581"/>
<polygon fill="#000000" stroke="#000000" points="217.2446,-676.0033 213.7445,-666.0034 210.2446,-676.0034 217.2446,-676.0033"/>
<text text-anchor="middle" x="223.2445" y="-687.8" font-family="Times,serif" font-size="14.00" fill="#000000">0m</text>
</g>
</g>
</svg>
