<?xml version="1.0" encoding="UTF-8" standalone="no"?>
<!DOCTYPE svg PUBLIC "-//W3C//DTD SVG 1.1//EN"
 "http://www.w3.org/Graphics/SVG/1.1/DTD/svg11.dtd">
<!-- Generated by graphviz version 2.40.1 (20161225.0304)
 -->
<!-- Title: CG Pages: 1 -->
<svg width="584pt" height="1894pt"
 viewBox="0.00 0.00 583.76 1894.00" xmlns="http://www.w3.org/2000/svg" xmlns:xlink="http://www.w3.org/1999/xlink">
<g id="graph0" class="graph" transform="scale(1 1) rotate(0) translate(4 1890)">
<title>CG</title>
<polygon fill="#ffffff" stroke="transparent" points="-4,4 -4,-1890 579.7601,-1890 579.7601,4 -4,4"/>
<text text-anchor="middle" x="287.88" y="-1870.8" font-family="Times,serif" font-size="14.00" fill="#000000">Coverability Graph</text>
<!-- S0 -->
<g id="node1" class="node">
<title>S0</title>
<polygon fill="none" stroke="#000000" points="524.88,-1863 178.88,-1863 178.88,-1827 524.88,-1827 524.88,-1863"/>
<text text-anchor="middle" x="351.88" y="-1841.3" font-family="Times,serif" font-size="14.00" fill="#000000">[1, 0, 0, 1, 0, 0, 0, 0, 0, 0, 0, 0, 0, 0, 0, 0, 0, 0, 0, 0, 0, 0, 0]</text>
</g>
<!-- S1 -->
<g id="node2" class="node">
<title>S1</title>
<ellipse fill="none" stroke="#000000" cx="224.88" cy="-1758" rx="224.7602" ry="18"/>
<text text-anchor="middle" x="224.88" y="-1754.3" font-family="Times,serif" font-size="14.00" fill="#000000">[0, 0, 0, 1, 0, 1, 0, 0, 0, 0, 0, 0, 0, 0, 0, 0, 0, 0, 0, 0, 0, 0, 0]</text>
</g>
<!-- S0&#45;&gt;S1 -->
<g id="edge1" class="edge">
<title>S0&#45;&gt;S1</title>
<path fill="none" stroke="#000000" d="M325.5656,-1826.9735C306.4086,-1813.8503 280.2801,-1795.9512 259.441,-1781.6756"/>
<polygon fill="#000000" stroke="#000000" points="261.3888,-1778.7674 251.1608,-1776.0034 257.4327,-1784.5424 261.3888,-1778.7674"/>
<text text-anchor="middle" x="334.38" y="-1797.8" font-family="Times,serif" font-size="14.00" fill="#000000">TAPN1.ICT2</text>
</g>
<!-- S2 -->
<g id="node3" class="node">
<title>S2</title>
<ellipse fill="none" stroke="#000000" cx="224.88" cy="-1671" rx="224.7602" ry="18"/>
<text text-anchor="middle" x="224.88" y="-1667.3" font-family="Times,serif" font-size="14.00" fill="#000000">[0, 0, 0, 1, 0, 0, 1, 0, 0, 0, 0, 0, 0, 0, 0, 0, 0, 0, 0, 0, 0, 0, 0]</text>
</g>
<!-- S1&#45;&gt;S2 -->
<g id="edge2" class="edge">
<title>S1&#45;&gt;S2</title>
<path fill="none" stroke="#000000" d="M224.88,-1739.9735C224.88,-1728.1918 224.88,-1712.5607 224.88,-1699.1581"/>
<polygon fill="#000000" stroke="#000000" points="228.3801,-1699.0033 224.88,-1689.0034 221.3801,-1699.0034 228.3801,-1699.0033"/>
<text text-anchor="middle" x="262.38" y="-1710.8" font-family="Times,serif" font-size="14.00" fill="#000000">TAPN1.ICT3</text>
</g>
<!-- S3 -->
<g id="node4" class="node">
<title>S3</title>
<ellipse fill="none" stroke="#000000" cx="224.88" cy="-1584" rx="224.7602" ry="18"/>
<text text-anchor="middle" x="224.88" y="-1580.3" font-family="Times,serif" font-size="14.00" fill="#000000">[0, 0, 0, 1, 0, 0, 0, 1, 0, 0, 0, 0, 0, 0, 0, 0, 0, 0, 0, 0, 0, 0, 0]</text>
</g>
<!-- S2&#45;&gt;S3 -->
<g id="edge3" class="edge">
<title>S2&#45;&gt;S3</title>
<path fill="none" stroke="#000000" d="M224.88,-1652.9735C224.88,-1641.1918 224.88,-1625.5607 224.88,-1612.1581"/>
<polygon fill="#000000" stroke="#000000" points="228.3801,-1612.0033 224.88,-1602.0034 221.3801,-1612.0034 228.3801,-1612.0033"/>
<text text-anchor="middle" x="262.38" y="-1623.8" font-family="Times,serif" font-size="14.00" fill="#000000">TAPN1.ICT4</text>
</g>
<!-- S4 -->
<g id="node5" class="node">
<title>S4</title>
<ellipse fill="none" stroke="#000000" cx="224.88" cy="-1497" rx="224.7602" ry="18"/>
<text text-anchor="middle" x="224.88" y="-1493.3" font-family="Times,serif" font-size="14.00" fill="#000000">[0, 0, 0, 1, 0, 0, 0, 0, 1, 0, 0, 0, 0, 0, 0, 0, 0, 0, 0, 0, 0, 0, 0]</text>
</g>
<!-- S3&#45;&gt;S4 -->
<g id="edge4" class="edge">
<title>S3&#45;&gt;S4</title>
<path fill="none" stroke="#000000" d="M224.88,-1565.9735C224.88,-1554.1918 224.88,-1538.5607 224.88,-1525.1581"/>
<polygon fill="#000000" stroke="#000000" points="228.3801,-1525.0033 224.88,-1515.0034 221.3801,-1525.0034 228.3801,-1525.0033"/>
<text text-anchor="middle" x="262.38" y="-1536.8" font-family="Times,serif" font-size="14.00" fill="#000000">TAPN1.ICT5</text>
</g>
<!-- S5 -->
<g id="node6" class="node">
<title>S5</title>
<ellipse fill="none" stroke="#000000" cx="224.88" cy="-1410" rx="224.7602" ry="18"/>
<text text-anchor="middle" x="224.88" y="-1406.3" font-family="Times,serif" font-size="14.00" fill="#000000">[0, 0, 0, 1, 0, 0, 0, 0, 0, 1, 0, 0, 0, 0, 0, 0, 0, 0, 0, 0, 0, 0, 0]</text>
</g>
<!-- S4&#45;&gt;S5 -->
<g id="edge5" class="edge">
<title>S4&#45;&gt;S5</title>
<path fill="none" stroke="#000000" d="M224.88,-1478.9735C224.88,-1467.1918 224.88,-1451.5607 224.88,-1438.1581"/>
<polygon fill="#000000" stroke="#000000" points="228.3801,-1438.0033 224.88,-1428.0034 221.3801,-1438.0034 228.3801,-1438.0033"/>
<text text-anchor="middle" x="262.38" y="-1449.8" font-family="Times,serif" font-size="14.00" fill="#000000">TAPN1.ICT6</text>
</g>
<!-- S6 -->
<g id="node7" class="node">
<title>S6</title>
<ellipse fill="none" stroke="#000000" cx="224.88" cy="-1323" rx="224.7602" ry="18"/>
<text text-anchor="middle" x="224.88" y="-1319.3" font-family="Times,serif" font-size="14.00" fill="#000000">[0, 0, 0, 1, 0, 0, 0, 0, 0, 0, 1, 0, 0, 0, 0, 0, 0, 0, 0, 0, 0, 0, 0]</text>
</g>
<!-- S5&#45;&gt;S6 -->
<g id="edge6" class="edge">
<title>S5&#45;&gt;S6</title>
<path fill="none" stroke="#000000" d="M224.88,-1391.9735C224.88,-1380.1918 224.88,-1364.5607 224.88,-1351.1581"/>
<polygon fill="#000000" stroke="#000000" points="228.3801,-1351.0033 224.88,-1341.0034 221.3801,-1351.0034 228.3801,-1351.0033"/>
<text text-anchor="middle" x="262.38" y="-1362.8" font-family="Times,serif" font-size="14.00" fill="#000000">TAPN1.ICT7</text>
</g>
<!-- S7 -->
<g id="node8" class="node">
<title>S7</title>
<ellipse fill="none" stroke="#000000" cx="224.88" cy="-1236" rx="224.7602" ry="18"/>
<text text-anchor="middle" x="224.88" y="-1232.3" font-family="Times,serif" font-size="14.00" fill="#000000">[0, 0, 0, 1, 0, 0, 0, 0, 0, 0, 0, 1, 0, 0, 0, 0, 0, 0, 0, 0, 0, 0, 0]</text>
</g>
<!-- S6&#45;&gt;S7 -->
<g id="edge7" class="edge">
<title>S6&#45;&gt;S7</title>
<path fill="none" stroke="#000000" d="M224.88,-1304.9735C224.88,-1293.1918 224.88,-1277.5607 224.88,-1264.1581"/>
<polygon fill="#000000" stroke="#000000" points="228.3801,-1264.0033 224.88,-1254.0034 221.3801,-1264.0034 228.3801,-1264.0033"/>
<text text-anchor="middle" x="262.38" y="-1275.8" font-family="Times,serif" font-size="14.00" fill="#000000">TAPN1.ICT8</text>
</g>
<!-- S8 -->
<g id="node9" class="node">
<title>S8</title>
<ellipse fill="none" stroke="#000000" cx="224.88" cy="-1149" rx="224.7602" ry="18"/>
<text text-anchor="middle" x="224.88" y="-1145.3" font-family="Times,serif" font-size="14.00" fill="#000000">[0, 0, 0, 1, 0, 0, 0, 0, 0, 0, 0, 0, 1, 0, 0, 0, 0, 0, 0, 0, 0, 0, 0]</text>
</g>
<!-- S7&#45;&gt;S8 -->
<g id="edge8" class="edge">
<title>S7&#45;&gt;S8</title>
<path fill="none" stroke="#000000" d="M224.88,-1217.9735C224.88,-1206.1918 224.88,-1190.5607 224.88,-1177.1581"/>
<polygon fill="#000000" stroke="#000000" points="228.3801,-1177.0033 224.88,-1167.0034 221.3801,-1177.0034 228.3801,-1177.0033"/>
<text text-anchor="middle" x="262.38" y="-1188.8" font-family="Times,serif" font-size="14.00" fill="#000000">TAPN1.ICT9</text>
</g>
<!-- S9 -->
<g id="node10" class="node">
<title>S9</title>
<ellipse fill="none" stroke="#000000" cx="224.88" cy="-1062" rx="224.7602" ry="18"/>
<text text-anchor="middle" x="224.88" y="-1058.3" font-family="Times,serif" font-size="14.00" fill="#000000">[0, 0, 0, 1, 1, 0, 0, 0, 0, 0, 0, 0, 0, 0, 0, 0, 0, 0, 0, 0, 0, 0, 0]</text>
</g>
<!-- S8&#45;&gt;S9 -->
<g id="edge9" class="edge">
<title>S8&#45;&gt;S9</title>
<path fill="none" stroke="#000000" d="M224.88,-1130.9735C224.88,-1119.1918 224.88,-1103.5607 224.88,-1090.1581"/>
<polygon fill="#000000" stroke="#000000" points="228.3801,-1090.0033 224.88,-1080.0034 221.3801,-1090.0034 228.3801,-1090.0033"/>
<text text-anchor="middle" x="265.88" y="-1101.8" font-family="Times,serif" font-size="14.00" fill="#000000">TAPN1.ICT10</text>
</g>
<!-- S10 -->
<g id="node11" class="node">
<title>S10</title>
<ellipse fill="none" stroke="#000000" cx="224.88" cy="-975" rx="224.7602" ry="18"/>
<text text-anchor="middle" x="224.88" y="-971.3" font-family="Times,serif" font-size="14.00" fill="#000000">[0, 1, 0, 1, 0, 0, 0, 0, 0, 0, 0, 0, 0, 0, 0, 0, 0, 0, 0, 0, 0, 0, 0]</text>
</g>
<!-- S9&#45;&gt;S10 -->
<g id="edge10" class="edge">
<title>S9&#45;&gt;S10</title>
<path fill="none" stroke="#000000" d="M224.88,-1043.9735C224.88,-1032.1918 224.88,-1016.5607 224.88,-1003.1581"/>
<polygon fill="#000000" stroke="#000000" points="228.3801,-1003.0033 224.88,-993.0034 221.3801,-1003.0034 228.3801,-1003.0033"/>
<text text-anchor="middle" x="265.88" y="-1014.8" font-family="Times,serif" font-size="14.00" fill="#000000">TAPN1.ICT11</text>
</g>
<!-- S11 -->
<g id="node12" class="node">
<title>S11</title>
<ellipse fill="none" stroke="#000000" cx="224.88" cy="-888" rx="224.7602" ry="18"/>
<text text-anchor="middle" x="224.88" y="-884.3" font-family="Times,serif" font-size="14.00" fill="#000000">[1, 0, 1, 0, 0, 0, 0, 0, 0, 0, 0, 0, 0, 0, 0, 0, 0, 0, 0, 0, 0, 0, 0]</text>
</g>
<!-- S10&#45;&gt;S11 -->
<g id="edge11" class="edge">
<title>S10&#45;&gt;S11</title>
<path fill="none" stroke="#000000" d="M224.88,-956.9735C224.88,-945.1918 224.88,-929.5607 224.88,-916.1581"/>
<polygon fill="#000000" stroke="#000000" points="228.3801,-916.0033 224.88,-906.0034 221.3801,-916.0034 228.3801,-916.0033"/>
<text text-anchor="middle" x="270.38" y="-927.8" font-family="Times,serif" font-size="14.00" fill="#000000">light.switch_1_9</text>
</g>
<!-- S12 -->
<g id="node13" class="node">
<title>S12</title>
<ellipse fill="none" stroke="#000000" cx="224.88" cy="-801" rx="224.7602" ry="18"/>
<text text-anchor="middle" x="224.88" y="-797.3" font-family="Times,serif" font-size="14.00" fill="#000000">[0, 0, 1, 0, 0, 1, 0, 0, 0, 0, 0, 0, 0, 0, 0, 0, 0, 0, 0, 0, 0, 0, 0]</text>
</g>
<!-- S11&#45;&gt;S12 -->
<g id="edge12" class="edge">
<title>S11&#45;&gt;S12</title>
<path fill="none" stroke="#000000" d="M224.88,-869.9735C224.88,-858.1918 224.88,-842.5607 224.88,-829.1581"/>
<polygon fill="#000000" stroke="#000000" points="228.3801,-829.0033 224.88,-819.0034 221.3801,-829.0034 228.3801,-829.0033"/>
<text text-anchor="middle" x="262.38" y="-840.8" font-family="Times,serif" font-size="14.00" fill="#000000">TAPN1.ICT2</text>
</g>
<!-- S13 -->
<g id="node14" class="node">
<title>S13</title>
<ellipse fill="none" stroke="#000000" cx="224.88" cy="-714" rx="224.7602" ry="18"/>
<text text-anchor="middle" x="224.88" y="-710.3" font-family="Times,serif" font-size="14.00" fill="#000000">[0, 0, 1, 0, 0, 0, 1, 0, 0, 0, 0, 0, 0, 0, 0, 0, 0, 0, 0, 0, 0, 0, 0]</text>
</g>
<!-- S12&#45;&gt;S13 -->
<g id="edge13" class="edge">
<title>S12&#45;&gt;S13</title>
<path fill="none" stroke="#000000" d="M224.88,-782.9735C224.88,-771.1918 224.88,-755.5607 224.88,-742.1581"/>
<polygon fill="#000000" stroke="#000000" points="228.3801,-742.0033 224.88,-732.0034 221.3801,-742.0034 228.3801,-742.0033"/>
<text text-anchor="middle" x="262.38" y="-753.8" font-family="Times,serif" font-size="14.00" fill="#000000">TAPN1.ICT3</text>
</g>
<!-- S14 -->
<g id="node15" class="node">
<title>S14</title>
<ellipse fill="none" stroke="#000000" cx="224.88" cy="-627" rx="224.7602" ry="18"/>
<text text-anchor="middle" x="224.88" y="-623.3" font-family="Times,serif" font-size="14.00" fill="#000000">[0, 0, 1, 0, 0, 0, 0, 1, 0, 0, 0, 0, 0, 0, 0, 0, 0, 0, 0, 0, 0, 0, 0]</text>
</g>
<!-- S13&#45;&gt;S14 -->
<g id="edge14" class="edge">
<title>S13&#45;&gt;S14</title>
<path fill="none" stroke="#000000" d="M224.88,-695.9735C224.88,-684.1918 224.88,-668.5607 224.88,-655.1581"/>
<polygon fill="#000000" stroke="#000000" points="228.3801,-655.0033 224.88,-645.0034 221.3801,-655.0034 228.3801,-655.0033"/>
<text text-anchor="middle" x="262.38" y="-666.8" font-family="Times,serif" font-size="14.00" fill="#000000">TAPN1.ICT4</text>
</g>
<!-- S15 -->
<g id="node16" class="node">
<title>S15</title>
<ellipse fill="none" stroke="#000000" cx="224.88" cy="-540" rx="224.7602" ry="18"/>
<text text-anchor="middle" x="224.88" y="-536.3" font-family="Times,serif" font-size="14.00" fill="#000000">[0, 0, 1, 0, 0, 0, 0, 0, 1, 0, 0, 0, 0, 0, 0, 0, 0, 0, 0, 0, 0, 0, 0]</text>
</g>
<!-- S14&#45;&gt;S15 -->
<g id="edge15" class="edge">
<title>S14&#45;&gt;S15</title>
<path fill="none" stroke="#000000" d="M224.88,-608.9735C224.88,-597.1918 224.88,-581.5607 224.88,-568.1581"/>
<polygon fill="#000000" stroke="#000000" points="228.3801,-568.0033 224.88,-558.0034 221.3801,-568.0034 228.3801,-568.0033"/>
<text text-anchor="middle" x="262.38" y="-579.8" font-family="Times,serif" font-size="14.00" fill="#000000">TAPN1.ICT5</text>
</g>
<!-- S16 -->
<g id="node17" class="node">
<title>S16</title>
<ellipse fill="none" stroke="#000000" cx="224.88" cy="-453" rx="224.7602" ry="18"/>
<text text-anchor="middle" x="224.88" y="-449.3" font-family="Times,serif" font-size="14.00" fill="#000000">[0, 0, 1, 0, 0, 0, 0, 0, 0, 1, 0, 0, 0, 0, 0, 0, 0, 0, 0, 0, 0, 0, 0]</text>
</g>
<!-- S15&#45;&gt;S16 -->
<g id="edge16" class="edge">
<title>S15&#45;&gt;S16</title>
<path fill="none" stroke="#000000" d="M224.88,-521.9735C224.88,-510.1918 224.88,-494.5607 224.88,-481.1581"/>
<polygon fill="#000000" stroke="#000000" points="228.3801,-481.0033 224.88,-471.0034 221.3801,-481.0034 228.3801,-481.0033"/>
<text text-anchor="middle" x="262.38" y="-492.8" font-family="Times,serif" font-size="14.00" fill="#000000">TAPN1.ICT6</text>
</g>
<!-- S17 -->
<g id="node18" class="node">
<title>S17</title>
<ellipse fill="none" stroke="#000000" cx="224.88" cy="-366" rx="224.7602" ry="18"/>
<text text-anchor="middle" x="224.88" y="-362.3" font-family="Times,serif" font-size="14.00" fill="#000000">[0, 0, 1, 0, 0, 0, 0, 0, 0, 0, 1, 0, 0, 0, 0, 0, 0, 0, 0, 0, 0, 0, 0]</text>
</g>
<!-- S16&#45;&gt;S17 -->
<g id="edge17" class="edge">
<title>S16&#45;&gt;S17</title>
<path fill="none" stroke="#000000" d="M224.88,-434.9735C224.88,-423.1918 224.88,-407.5607 224.88,-394.1581"/>
<polygon fill="#000000" stroke="#000000" points="228.3801,-394.0033 224.88,-384.0034 221.3801,-394.0034 228.3801,-394.0033"/>
<text text-anchor="middle" x="262.38" y="-405.8" font-family="Times,serif" font-size="14.00" fill="#000000">TAPN1.ICT7</text>
</g>
<!-- S18 -->
<g id="node19" class="node">
<title>S18</title>
<ellipse fill="none" stroke="#000000" cx="224.88" cy="-279" rx="224.7602" ry="18"/>
<text text-anchor="middle" x="224.88" y="-275.3" font-family="Times,serif" font-size="14.00" fill="#000000">[0, 0, 1, 0, 0, 0, 0, 0, 0, 0, 0, 1, 0, 0, 0, 0, 0, 0, 0, 0, 0, 0, 0]</text>
</g>
<!-- S17&#45;&gt;S18 -->
<g id="edge18" class="edge">
<title>S17&#45;&gt;S18</title>
<path fill="none" stroke="#000000" d="M224.88,-347.9735C224.88,-336.1918 224.88,-320.5607 224.88,-307.1581"/>
<polygon fill="#000000" stroke="#000000" points="228.3801,-307.0033 224.88,-297.0034 221.3801,-307.0034 228.3801,-307.0033"/>
<text text-anchor="middle" x="262.38" y="-318.8" font-family="Times,serif" font-size="14.00" fill="#000000">TAPN1.ICT8</text>
</g>
<!-- S19 -->
<g id="node20" class="node">
<title>S19</title>
<ellipse fill="none" stroke="#000000" cx="224.88" cy="-192" rx="224.7602" ry="18"/>
<text text-anchor="middle" x="224.88" y="-188.3" font-family="Times,serif" font-size="14.00" fill="#000000">[0, 0, 1, 0, 0, 0, 0, 0, 0, 0, 0, 0, 1, 0, 0, 0, 0, 0, 0, 0, 0, 0, 0]</text>
</g>
<!-- S18&#45;&gt;S19 -->
<g id="edge19" class="edge">
<title>S18&#45;&gt;S19</title>
<path fill="none" stroke="#000000" d="M224.88,-260.9735C224.88,-249.1918 224.88,-233.5607 224.88,-220.1581"/>
<polygon fill="#000000" stroke="#000000" points="228.3801,-220.0033 224.88,-210.0034 221.3801,-220.0034 228.3801,-220.0033"/>
<text text-anchor="middle" x="262.38" y="-231.8" font-family="Times,serif" font-size="14.00" fill="#000000">TAPN1.ICT9</text>
</g>
<!-- S20 -->
<g id="node21" class="node">
<title>S20</title>
<ellipse fill="none" stroke="#000000" cx="224.88" cy="-105" rx="224.7602" ry="18"/>
<text text-anchor="middle" x="224.88" y="-101.3" font-family="Times,serif" font-size="14.00" fill="#000000">[0, 0, 1, 0, 1, 0, 0, 0, 0, 0, 0, 0, 0, 0, 0, 0, 0, 0, 0, 0, 0, 0, 0]</text>
</g>
<!-- S19&#45;&gt;S20 -->
<g id="edge20" class="edge">
<title>S19&#45;&gt;S20</title>
<path fill="none" stroke="#000000" d="M224.88,-173.9735C224.88,-162.1918 224.88,-146.5607 224.88,-133.1581"/>
<polygon fill="#000000" stroke="#000000" points="228.3801,-133.0033 224.88,-123.0034 221.3801,-133.0034 228.3801,-133.0033"/>
<text text-anchor="middle" x="265.88" y="-144.8" font-family="Times,serif" font-size="14.00" fill="#000000">TAPN1.ICT10</text>
</g>
<!-- S21 -->
<g id="node22" class="node">
<title>S21</title>
<ellipse fill="none" stroke="#000000" cx="350.88" cy="-18" rx="224.7602" ry="18"/>
<text text-anchor="middle" x="350.88" y="-14.3" font-family="Times,serif" font-size="14.00" fill="#000000">[0, 1, 1, 0, 0, 0, 0, 0, 0, 0, 0, 0, 0, 0, 0, 0, 0, 0, 0, 0, 0, 0, 0]</text>
</g>
<!-- S20&#45;&gt;S21 -->
<g id="edge21" class="edge">
<title>S20&#45;&gt;S21</title>
<path fill="none" stroke="#000000" d="M250.9873,-86.9735C269.909,-73.9086 295.686,-56.1102 316.3153,-41.8662"/>
<polygon fill="#000000" stroke="#000000" points="318.5659,-44.5655 324.8062,-36.0034 314.5885,-38.8052 318.5659,-44.5655"/>
<text text-anchor="middle" x="336.88" y="-57.8" font-family="Times,serif" font-size="14.00" fill="#000000">TAPN1.ICT11</text>
</g>
<!-- S21&#45;&gt;S0 -->
<g id="edge22" class="edge">
<title>S21&#45;&gt;S0</title>
<path fill="none" stroke="#000000" d="M413.2639,-35.3826C445.3815,-48.5327 477.88,-70.3899 477.88,-105 477.88,-1758 477.88,-1758 477.88,-1758 477.88,-1788.5833 452.432,-1809.2491 424.409,-1822.7345"/>
<polygon fill="#000000" stroke="#000000" points="422.9271,-1819.5633 415.2492,-1826.864 425.8041,-1825.9447 422.9271,-1819.5633"/>
<text text-anchor="middle" x="516.88" y="-927.8" font-family="Times,serif" font-size="14.00" fill="#000000">light.switch_3</text>
</g>
</g>
</svg>
