<?xml version="1.0" encoding="UTF-8" standalone="no"?>
<!DOCTYPE svg PUBLIC "-//W3C//DTD SVG 1.1//EN"
 "http://www.w3.org/Graphics/SVG/1.1/DTD/svg11.dtd">
<!-- Generated by graphviz version 2.40.1 (20161225.0304)
 -->
<!-- Title: RG Pages: 1 -->
<svg width="998pt" height="1459pt"
 viewBox="0.00 0.00 998.16 1459.00" xmlns="http://www.w3.org/2000/svg" xmlns:xlink="http://www.w3.org/1999/xlink">
<g id="graph0" class="graph" transform="scale(1 1) rotate(0) translate(4 1455)">
<title>RG</title>
<polygon fill="#ffffff" stroke="transparent" points="-4,4 -4,-1455 994.1569,-1455 994.1569,4 -4,4"/>
<text text-anchor="middle" x="495.0784" y="-1435.8" font-family="Times,serif" font-size="14.00" fill="#000000">Reachability Graph</text>
<!-- S0 -->
<g id="node1" class="node">
<title>S0</title>
<polygon fill="none" stroke="#000000" points="681.0784,-1428 307.0784,-1428 307.0784,-1392 681.0784,-1392 681.0784,-1428"/>
<text text-anchor="middle" x="494.0784" y="-1406.3" font-family="Times,serif" font-size="14.00" fill="#000000">[1, 0, 0, 1, 0, 0, 0, 0, 0, 0, 0, 0, 0, 0, 1, 0, 0, 0, 0, 1, 0, 0, 0, 0, 0]</text>
</g>
<!-- S1 -->
<g id="node2" class="node">
<title>S1</title>
<ellipse fill="none" stroke="#000000" cx="494.0784" cy="-1323" rx="243.1569" ry="18"/>
<text text-anchor="middle" x="494.0784" y="-1319.3" font-family="Times,serif" font-size="14.00" fill="#000000">[0, 0, 0, 1, 0, 0, 1, 0, 0, 0, 0, 0, 0, 0, 1, 0, 0, 0, 0, 1, 0, 0, 0, 0, 0]</text>
</g>
<!-- S0&#45;&gt;S1 -->
<g id="edge1" class="edge">
<title>S0&#45;&gt;S1</title>
<path fill="none" stroke="#000000" d="M494.0784,-1391.9735C494.0784,-1380.1918 494.0784,-1364.5607 494.0784,-1351.1581"/>
<polygon fill="#000000" stroke="#000000" points="497.5785,-1351.0033 494.0784,-1341.0034 490.5785,-1351.0034 497.5785,-1351.0033"/>
<text text-anchor="middle" x="531.5784" y="-1362.8" font-family="Times,serif" font-size="14.00" fill="#000000">TAPN1.ICT2</text>
</g>
<!-- S2 -->
<g id="node3" class="node">
<title>S2</title>
<ellipse fill="none" stroke="#000000" cx="494.0784" cy="-1236" rx="243.1569" ry="18"/>
<text text-anchor="middle" x="494.0784" y="-1232.3" font-family="Times,serif" font-size="14.00" fill="#000000">[0, 0, 0, 1, 0, 0, 0, 1, 0, 0, 0, 0, 0, 0, 1, 0, 0, 0, 0, 1, 0, 0, 0, 0, 0]</text>
</g>
<!-- S1&#45;&gt;S2 -->
<g id="edge2" class="edge">
<title>S1&#45;&gt;S2</title>
<path fill="none" stroke="#000000" d="M494.0784,-1304.9735C494.0784,-1293.1918 494.0784,-1277.5607 494.0784,-1264.1581"/>
<polygon fill="#000000" stroke="#000000" points="497.5785,-1264.0033 494.0784,-1254.0034 490.5785,-1264.0034 497.5785,-1264.0033"/>
<text text-anchor="middle" x="531.5784" y="-1275.8" font-family="Times,serif" font-size="14.00" fill="#000000">TAPN1.ICT3</text>
</g>
<!-- S3 -->
<g id="node4" class="node">
<title>S3</title>
<ellipse fill="none" stroke="#000000" cx="243.0784" cy="-1149" rx="243.1569" ry="18"/>
<text text-anchor="middle" x="243.0784" y="-1145.3" font-family="Times,serif" font-size="14.00" fill="#000000">[0, 0, 0, 1, 0, 0, 0, 0, 1, 0, 0, 0, 0, 0, 1, 0, 0, 0, 0, 0, 0, 0, 0, 1, 0]</text>
</g>
<!-- S2&#45;&gt;S3 -->
<g id="edge3" class="edge">
<title>S2&#45;&gt;S3</title>
<path fill="none" stroke="#000000" d="M443.2848,-1218.3943C403.0173,-1204.437 346.6169,-1184.8878 303.9365,-1170.0942"/>
<polygon fill="#000000" stroke="#000000" points="304.8214,-1166.6967 294.2266,-1166.7287 302.5289,-1173.3107 304.8214,-1166.6967"/>
<text text-anchor="middle" x="434.0784" y="-1188.8" font-family="Times,serif" font-size="14.00" fill="#000000">TAPN1.S6_buffer</text>
</g>
<!-- S4 -->
<g id="node5" class="node">
<title>S4</title>
<ellipse fill="none" stroke="#000000" cx="747.0784" cy="-1149" rx="243.1569" ry="18"/>
<text text-anchor="middle" x="747.0784" y="-1145.3" font-family="Times,serif" font-size="14.00" fill="#000000">[0, 0, 0, 1, 0, 0, 0, 0, 1, 0, 0, 0, 0, 0, 1, 0, 0, 0, 0, 0, 0, 0, 1, 0, 0]</text>
</g>
<!-- S2&#45;&gt;S4 -->
<g id="edge4" class="edge">
<title>S2&#45;&gt;S4</title>
<path fill="none" stroke="#000000" d="M545.2768,-1218.3943C585.9506,-1204.4076 642.9544,-1184.8055 686.0069,-1170.0009"/>
<polygon fill="#000000" stroke="#000000" points="687.2043,-1173.2903 695.5227,-1166.7287 684.928,-1166.6708 687.2043,-1173.2903"/>
<text text-anchor="middle" x="677.0784" y="-1188.8" font-family="Times,serif" font-size="14.00" fill="#000000">TAPN1.S6_S9</text>
</g>
<!-- S18 -->
<g id="node19" class="node">
<title>S18</title>
<ellipse fill="none" stroke="#000000" cx="243.0784" cy="-1062" rx="243.1569" ry="18"/>
<text text-anchor="middle" x="243.0784" y="-1058.3" font-family="Times,serif" font-size="14.00" fill="#000000">[0, 0, 0, 1, 0, 0, 0, 0, 0, 1, 0, 0, 0, 0, 1, 0, 0, 0, 0, 0, 0, 0, 0, 1, 0]</text>
</g>
<!-- S3&#45;&gt;S18 -->
<g id="edge18" class="edge">
<title>S3&#45;&gt;S18</title>
<path fill="none" stroke="#000000" d="M243.0784,-1130.9735C243.0784,-1119.1918 243.0784,-1103.5607 243.0784,-1090.1581"/>
<polygon fill="#000000" stroke="#000000" points="246.5785,-1090.0033 243.0784,-1080.0034 239.5785,-1090.0034 246.5785,-1090.0033"/>
<text text-anchor="middle" x="280.5784" y="-1101.8" font-family="Times,serif" font-size="14.00" fill="#000000">TAPN1.ICT5</text>
</g>
<!-- S5 -->
<g id="node6" class="node">
<title>S5</title>
<ellipse fill="none" stroke="#000000" cx="747.0784" cy="-1062" rx="243.1569" ry="18"/>
<text text-anchor="middle" x="747.0784" y="-1058.3" font-family="Times,serif" font-size="14.00" fill="#000000">[0, 0, 0, 1, 0, 0, 0, 0, 0, 1, 0, 0, 0, 0, 1, 0, 0, 0, 0, 0, 0, 0, 1, 0, 0]</text>
</g>
<!-- S4&#45;&gt;S5 -->
<g id="edge5" class="edge">
<title>S4&#45;&gt;S5</title>
<path fill="none" stroke="#000000" d="M747.0784,-1130.9735C747.0784,-1119.1918 747.0784,-1103.5607 747.0784,-1090.1581"/>
<polygon fill="#000000" stroke="#000000" points="750.5785,-1090.0033 747.0784,-1080.0034 743.5785,-1090.0034 750.5785,-1090.0033"/>
<text text-anchor="middle" x="784.5784" y="-1101.8" font-family="Times,serif" font-size="14.00" fill="#000000">TAPN1.ICT5</text>
</g>
<!-- S6 -->
<g id="node7" class="node">
<title>S6</title>
<ellipse fill="none" stroke="#000000" cx="747.0784" cy="-975" rx="243.1569" ry="18"/>
<text text-anchor="middle" x="747.0784" y="-971.3" font-family="Times,serif" font-size="14.00" fill="#000000">[0, 0, 0, 1, 0, 0, 0, 0, 0, 0, 1, 0, 0, 0, 1, 0, 0, 0, 0, 0, 0, 0, 1, 0, 0]</text>
</g>
<!-- S5&#45;&gt;S6 -->
<g id="edge6" class="edge">
<title>S5&#45;&gt;S6</title>
<path fill="none" stroke="#000000" d="M747.0784,-1043.9735C747.0784,-1032.1918 747.0784,-1016.5607 747.0784,-1003.1581"/>
<polygon fill="#000000" stroke="#000000" points="750.5785,-1003.0033 747.0784,-993.0034 743.5785,-1003.0034 750.5785,-1003.0033"/>
<text text-anchor="middle" x="784.5784" y="-1014.8" font-family="Times,serif" font-size="14.00" fill="#000000">TAPN1.ICT6</text>
</g>
<!-- S7 -->
<g id="node8" class="node">
<title>S7</title>
<ellipse fill="none" stroke="#000000" cx="747.0784" cy="-888" rx="243.1569" ry="18"/>
<text text-anchor="middle" x="747.0784" y="-884.3" font-family="Times,serif" font-size="14.00" fill="#000000">[0, 0, 0, 1, 0, 0, 0, 0, 0, 0, 0, 1, 0, 0, 0, 0, 0, 1, 0, 0, 0, 0, 1, 0, 0]</text>
</g>
<!-- S6&#45;&gt;S7 -->
<g id="edge7" class="edge">
<title>S6&#45;&gt;S7</title>
<path fill="none" stroke="#000000" d="M747.0784,-956.9735C747.0784,-945.1918 747.0784,-929.5607 747.0784,-916.1581"/>
<polygon fill="#000000" stroke="#000000" points="750.5785,-916.0033 747.0784,-906.0034 743.5785,-916.0034 750.5785,-916.0033"/>
<text text-anchor="middle" x="788.0784" y="-927.8" font-family="Times,serif" font-size="14.00" fill="#000000">TAPN1.S1_S4</text>
</g>
<!-- S8 -->
<g id="node9" class="node">
<title>S8</title>
<ellipse fill="none" stroke="#000000" cx="747.0784" cy="-801" rx="243.1569" ry="18"/>
<text text-anchor="middle" x="747.0784" y="-797.3" font-family="Times,serif" font-size="14.00" fill="#000000">[0, 0, 0, 1, 0, 0, 0, 0, 0, 0, 0, 0, 1, 0, 0, 0, 0, 1, 0, 0, 0, 0, 1, 0, 0]</text>
</g>
<!-- S7&#45;&gt;S8 -->
<g id="edge8" class="edge">
<title>S7&#45;&gt;S8</title>
<path fill="none" stroke="#000000" d="M747.0784,-869.9735C747.0784,-858.1918 747.0784,-842.5607 747.0784,-829.1581"/>
<polygon fill="#000000" stroke="#000000" points="750.5785,-829.0033 747.0784,-819.0034 743.5785,-829.0034 750.5785,-829.0033"/>
<text text-anchor="middle" x="784.5784" y="-840.8" font-family="Times,serif" font-size="14.00" fill="#000000">TAPN1.ICT8</text>
</g>
<!-- S9 -->
<g id="node10" class="node">
<title>S9</title>
<ellipse fill="none" stroke="#000000" cx="747.0784" cy="-714" rx="243.1569" ry="18"/>
<text text-anchor="middle" x="747.0784" y="-710.3" font-family="Times,serif" font-size="14.00" fill="#000000">[0, 0, 0, 1, 0, 0, 0, 0, 0, 0, 0, 0, 0, 1, 0, 0, 0, 1, 0, 0, 0, 0, 1, 0, 0]</text>
</g>
<!-- S8&#45;&gt;S9 -->
<g id="edge9" class="edge">
<title>S8&#45;&gt;S9</title>
<path fill="none" stroke="#000000" d="M747.0784,-782.9735C747.0784,-771.1918 747.0784,-755.5607 747.0784,-742.1581"/>
<polygon fill="#000000" stroke="#000000" points="750.5785,-742.0033 747.0784,-732.0034 743.5785,-742.0034 750.5785,-742.0033"/>
<text text-anchor="middle" x="784.5784" y="-753.8" font-family="Times,serif" font-size="14.00" fill="#000000">TAPN1.ICT9</text>
</g>
<!-- S10 -->
<g id="node11" class="node">
<title>S10</title>
<ellipse fill="none" stroke="#000000" cx="747.0784" cy="-627" rx="243.1569" ry="18"/>
<text text-anchor="middle" x="747.0784" y="-623.3" font-family="Times,serif" font-size="14.00" fill="#000000">[0, 0, 0, 1, 1, 0, 0, 0, 0, 0, 0, 0, 0, 0, 0, 0, 0, 1, 0, 0, 0, 0, 1, 0, 0]</text>
</g>
<!-- S9&#45;&gt;S10 -->
<g id="edge10" class="edge">
<title>S9&#45;&gt;S10</title>
<path fill="none" stroke="#000000" d="M747.0784,-695.9735C747.0784,-684.1918 747.0784,-668.5607 747.0784,-655.1581"/>
<polygon fill="#000000" stroke="#000000" points="750.5785,-655.0033 747.0784,-645.0034 743.5785,-655.0034 750.5785,-655.0033"/>
<text text-anchor="middle" x="788.0784" y="-666.8" font-family="Times,serif" font-size="14.00" fill="#000000">TAPN1.ICT10</text>
</g>
<!-- S11 -->
<g id="node12" class="node">
<title>S11</title>
<ellipse fill="none" stroke="#000000" cx="747.0784" cy="-540" rx="243.1569" ry="18"/>
<text text-anchor="middle" x="747.0784" y="-536.3" font-family="Times,serif" font-size="14.00" fill="#000000">[0, 0, 0, 1, 0, 1, 0, 0, 0, 0, 0, 0, 0, 0, 0, 0, 0, 1, 0, 0, 0, 0, 1, 0, 0]</text>
</g>
<!-- S10&#45;&gt;S11 -->
<g id="edge11" class="edge">
<title>S10&#45;&gt;S11</title>
<path fill="none" stroke="#000000" d="M747.0784,-608.9735C747.0784,-597.1918 747.0784,-581.5607 747.0784,-568.1581"/>
<polygon fill="#000000" stroke="#000000" points="750.5785,-568.0033 747.0784,-558.0034 743.5785,-568.0034 750.5785,-568.0033"/>
<text text-anchor="middle" x="797.0784" y="-579.8" font-family="Times,serif" font-size="14.00" fill="#000000">TAPN1.buffer_S7</text>
</g>
<!-- S12 -->
<g id="node13" class="node">
<title>S12</title>
<ellipse fill="none" stroke="#000000" cx="747.0784" cy="-453" rx="243.1569" ry="18"/>
<text text-anchor="middle" x="747.0784" y="-449.3" font-family="Times,serif" font-size="14.00" fill="#000000">[0, 1, 0, 1, 0, 0, 0, 0, 0, 0, 0, 0, 0, 0, 0, 0, 0, 1, 0, 0, 0, 0, 1, 0, 0]</text>
</g>
<!-- S11&#45;&gt;S12 -->
<g id="edge12" class="edge">
<title>S11&#45;&gt;S12</title>
<path fill="none" stroke="#000000" d="M747.0784,-521.9735C747.0784,-510.1918 747.0784,-494.5607 747.0784,-481.1581"/>
<polygon fill="#000000" stroke="#000000" points="750.5785,-481.0033 747.0784,-471.0034 743.5785,-481.0034 750.5785,-481.0033"/>
<text text-anchor="middle" x="788.0784" y="-492.8" font-family="Times,serif" font-size="14.00" fill="#000000">TAPN1.ICT12</text>
</g>
<!-- S13 -->
<g id="node14" class="node">
<title>S13</title>
<ellipse fill="none" stroke="#000000" cx="747.0784" cy="-366" rx="243.1569" ry="18"/>
<text text-anchor="middle" x="747.0784" y="-362.3" font-family="Times,serif" font-size="14.00" fill="#000000">[1, 0, 1, 0, 0, 0, 0, 0, 0, 0, 0, 0, 0, 0, 0, 0, 0, 1, 0, 0, 0, 0, 1, 0, 0]</text>
</g>
<!-- S12&#45;&gt;S13 -->
<g id="edge13" class="edge">
<title>S12&#45;&gt;S13</title>
<path fill="none" stroke="#000000" d="M747.0784,-434.9735C747.0784,-423.1918 747.0784,-407.5607 747.0784,-394.1581"/>
<polygon fill="#000000" stroke="#000000" points="750.5785,-394.0033 747.0784,-384.0034 743.5785,-394.0034 750.5785,-394.0033"/>
<text text-anchor="middle" x="792.5784" y="-405.8" font-family="Times,serif" font-size="14.00" fill="#000000">light.switch_1_9</text>
</g>
<!-- S14 -->
<g id="node15" class="node">
<title>S14</title>
<ellipse fill="none" stroke="#000000" cx="747.0784" cy="-279" rx="243.1569" ry="18"/>
<text text-anchor="middle" x="747.0784" y="-275.3" font-family="Times,serif" font-size="14.00" fill="#000000">[0, 0, 1, 0, 0, 0, 1, 0, 0, 0, 0, 0, 0, 0, 0, 0, 0, 1, 0, 0, 0, 0, 1, 0, 0]</text>
</g>
<!-- S13&#45;&gt;S14 -->
<g id="edge14" class="edge">
<title>S13&#45;&gt;S14</title>
<path fill="none" stroke="#000000" d="M747.0784,-347.9735C747.0784,-336.1918 747.0784,-320.5607 747.0784,-307.1581"/>
<polygon fill="#000000" stroke="#000000" points="750.5785,-307.0033 747.0784,-297.0034 743.5785,-307.0034 750.5785,-307.0033"/>
<text text-anchor="middle" x="784.5784" y="-318.8" font-family="Times,serif" font-size="14.00" fill="#000000">TAPN1.ICT2</text>
</g>
<!-- S15 -->
<g id="node16" class="node">
<title>S15</title>
<ellipse fill="none" stroke="#000000" cx="747.0784" cy="-192" rx="243.1569" ry="18"/>
<text text-anchor="middle" x="747.0784" y="-188.3" font-family="Times,serif" font-size="14.00" fill="#000000">[0, 0, 1, 0, 0, 0, 0, 1, 0, 0, 0, 0, 0, 0, 0, 0, 0, 1, 0, 0, 0, 1, 0, 0, 0]</text>
</g>
<!-- S14&#45;&gt;S15 -->
<g id="edge15" class="edge">
<title>S14&#45;&gt;S15</title>
<path fill="none" stroke="#000000" d="M747.0784,-260.9735C747.0784,-249.1918 747.0784,-233.5607 747.0784,-220.1581"/>
<polygon fill="#000000" stroke="#000000" points="750.5785,-220.0033 747.0784,-210.0034 743.5785,-220.0034 750.5785,-220.0033"/>
<text text-anchor="middle" x="788.0784" y="-231.8" font-family="Times,serif" font-size="14.00" fill="#000000">TAPN1.S9_S8</text>
</g>
<!-- S16 -->
<g id="node17" class="node">
<title>S16</title>
<ellipse fill="none" stroke="#000000" cx="747.0784" cy="-105" rx="243.1569" ry="18"/>
<text text-anchor="middle" x="747.0784" y="-101.3" font-family="Times,serif" font-size="14.00" fill="#000000">[0, 0, 1, 0, 0, 0, 0, 0, 1, 0, 0, 0, 0, 0, 0, 0, 0, 1, 0, 0, 0, 1, 0, 0, 0]</text>
</g>
<!-- S15&#45;&gt;S16 -->
<g id="edge16" class="edge">
<title>S15&#45;&gt;S16</title>
<path fill="none" stroke="#000000" d="M747.0784,-173.9735C747.0784,-162.1918 747.0784,-146.5607 747.0784,-133.1581"/>
<polygon fill="#000000" stroke="#000000" points="750.5785,-133.0033 747.0784,-123.0034 743.5785,-133.0034 750.5785,-133.0033"/>
<text text-anchor="middle" x="784.5784" y="-144.8" font-family="Times,serif" font-size="14.00" fill="#000000">TAPN1.ICT4</text>
</g>
<!-- S17 -->
<g id="node18" class="node">
<title>S17</title>
<ellipse fill="none" stroke="#000000" cx="747.0784" cy="-18" rx="243.1569" ry="18"/>
<text text-anchor="middle" x="747.0784" y="-14.3" font-family="Times,serif" font-size="14.00" fill="#000000">[0, 0, 1, 0, 0, 0, 0, 0, 0, 1, 0, 0, 0, 0, 0, 0, 0, 1, 0, 0, 0, 1, 0, 0, 0]</text>
</g>
<!-- S16&#45;&gt;S17 -->
<g id="edge17" class="edge">
<title>S16&#45;&gt;S17</title>
<path fill="none" stroke="#000000" d="M747.0784,-86.9735C747.0784,-75.1918 747.0784,-59.5607 747.0784,-46.1581"/>
<polygon fill="#000000" stroke="#000000" points="750.5785,-46.0033 747.0784,-36.0034 743.5785,-46.0034 750.5785,-46.0033"/>
<text text-anchor="middle" x="784.5784" y="-57.8" font-family="Times,serif" font-size="14.00" fill="#000000">TAPN1.ICT5</text>
</g>
<!-- S19 -->
<g id="node20" class="node">
<title>S19</title>
<ellipse fill="none" stroke="#000000" cx="243.0784" cy="-975" rx="243.1569" ry="18"/>
<text text-anchor="middle" x="243.0784" y="-971.3" font-family="Times,serif" font-size="14.00" fill="#000000">[0, 0, 0, 1, 0, 0, 0, 0, 0, 0, 1, 0, 0, 0, 1, 0, 0, 0, 0, 0, 0, 0, 0, 1, 0]</text>
</g>
<!-- S18&#45;&gt;S19 -->
<g id="edge19" class="edge">
<title>S18&#45;&gt;S19</title>
<path fill="none" stroke="#000000" d="M243.0784,-1043.9735C243.0784,-1032.1918 243.0784,-1016.5607 243.0784,-1003.1581"/>
<polygon fill="#000000" stroke="#000000" points="246.5785,-1003.0033 243.0784,-993.0034 239.5785,-1003.0034 246.5785,-1003.0033"/>
<text text-anchor="middle" x="280.5784" y="-1014.8" font-family="Times,serif" font-size="14.00" fill="#000000">TAPN1.ICT6</text>
</g>
<!-- S20 -->
<g id="node21" class="node">
<title>S20</title>
<ellipse fill="none" stroke="#000000" cx="243.0784" cy="-888" rx="243.1569" ry="18"/>
<text text-anchor="middle" x="243.0784" y="-884.3" font-family="Times,serif" font-size="14.00" fill="#000000">[0, 0, 0, 1, 0, 0, 0, 0, 0, 0, 0, 1, 0, 0, 0, 0, 0, 1, 0, 0, 0, 0, 0, 1, 0]</text>
</g>
<!-- S19&#45;&gt;S20 -->
<g id="edge20" class="edge">
<title>S19&#45;&gt;S20</title>
<path fill="none" stroke="#000000" d="M243.0784,-956.9735C243.0784,-945.1918 243.0784,-929.5607 243.0784,-916.1581"/>
<polygon fill="#000000" stroke="#000000" points="246.5785,-916.0033 243.0784,-906.0034 239.5785,-916.0034 246.5785,-916.0033"/>
<text text-anchor="middle" x="284.0784" y="-927.8" font-family="Times,serif" font-size="14.00" fill="#000000">TAPN1.S1_S4</text>
</g>
<!-- S21 -->
<g id="node22" class="node">
<title>S21</title>
<ellipse fill="none" stroke="#000000" cx="243.0784" cy="-801" rx="243.1569" ry="18"/>
<text text-anchor="middle" x="243.0784" y="-797.3" font-family="Times,serif" font-size="14.00" fill="#000000">[0, 0, 0, 1, 0, 0, 0, 0, 0, 0, 0, 0, 1, 0, 0, 0, 0, 1, 0, 0, 0, 0, 0, 1, 0]</text>
</g>
<!-- S20&#45;&gt;S21 -->
<g id="edge21" class="edge">
<title>S20&#45;&gt;S21</title>
<path fill="none" stroke="#000000" d="M243.0784,-869.9735C243.0784,-858.1918 243.0784,-842.5607 243.0784,-829.1581"/>
<polygon fill="#000000" stroke="#000000" points="246.5785,-829.0033 243.0784,-819.0034 239.5785,-829.0034 246.5785,-829.0033"/>
<text text-anchor="middle" x="280.5784" y="-840.8" font-family="Times,serif" font-size="14.00" fill="#000000">TAPN1.ICT8</text>
</g>
<!-- S22 -->
<g id="node23" class="node">
<title>S22</title>
<ellipse fill="none" stroke="#000000" cx="243.0784" cy="-714" rx="243.1569" ry="18"/>
<text text-anchor="middle" x="243.0784" y="-710.3" font-family="Times,serif" font-size="14.00" fill="#000000">[0, 0, 0, 1, 0, 0, 0, 0, 0, 0, 0, 0, 0, 1, 0, 0, 0, 1, 0, 0, 0, 0, 0, 1, 0]</text>
</g>
<!-- S21&#45;&gt;S22 -->
<g id="edge22" class="edge">
<title>S21&#45;&gt;S22</title>
<path fill="none" stroke="#000000" d="M243.0784,-782.9735C243.0784,-771.1918 243.0784,-755.5607 243.0784,-742.1581"/>
<polygon fill="#000000" stroke="#000000" points="246.5785,-742.0033 243.0784,-732.0034 239.5785,-742.0034 246.5785,-742.0033"/>
<text text-anchor="middle" x="280.5784" y="-753.8" font-family="Times,serif" font-size="14.00" fill="#000000">TAPN1.ICT9</text>
</g>
<!-- S23 -->
<g id="node24" class="node">
<title>S23</title>
<ellipse fill="none" stroke="#000000" cx="243.0784" cy="-627" rx="243.1569" ry="18"/>
<text text-anchor="middle" x="243.0784" y="-623.3" font-family="Times,serif" font-size="14.00" fill="#000000">[0, 0, 0, 1, 1, 0, 0, 0, 0, 0, 0, 0, 0, 0, 0, 0, 0, 1, 0, 0, 0, 0, 0, 1, 0]</text>
</g>
<!-- S22&#45;&gt;S23 -->
<g id="edge23" class="edge">
<title>S22&#45;&gt;S23</title>
<path fill="none" stroke="#000000" d="M243.0784,-695.9735C243.0784,-684.1918 243.0784,-668.5607 243.0784,-655.1581"/>
<polygon fill="#000000" stroke="#000000" points="246.5785,-655.0033 243.0784,-645.0034 239.5785,-655.0034 246.5785,-655.0033"/>
<text text-anchor="middle" x="284.0784" y="-666.8" font-family="Times,serif" font-size="14.00" fill="#000000">TAPN1.ICT10</text>
</g>
<!-- S24 -->
<g id="node25" class="node">
<title>S24</title>
<ellipse fill="none" stroke="#000000" cx="243.0784" cy="-540" rx="243.1569" ry="18"/>
<text text-anchor="middle" x="243.0784" y="-536.3" font-family="Times,serif" font-size="14.00" fill="#000000">[0, 0, 0, 1, 0, 1, 0, 0, 0, 0, 0, 0, 0, 0, 0, 0, 0, 1, 0, 0, 0, 0, 0, 1, 0]</text>
</g>
<!-- S23&#45;&gt;S24 -->
<g id="edge24" class="edge">
<title>S23&#45;&gt;S24</title>
<path fill="none" stroke="#000000" d="M243.0784,-608.9735C243.0784,-597.1918 243.0784,-581.5607 243.0784,-568.1581"/>
<polygon fill="#000000" stroke="#000000" points="246.5785,-568.0033 243.0784,-558.0034 239.5785,-568.0034 246.5785,-568.0033"/>
<text text-anchor="middle" x="293.0784" y="-579.8" font-family="Times,serif" font-size="14.00" fill="#000000">TAPN1.buffer_S7</text>
</g>
<!-- S25 -->
<g id="node26" class="node">
<title>S25</title>
<ellipse fill="none" stroke="#000000" cx="243.0784" cy="-453" rx="243.1569" ry="18"/>
<text text-anchor="middle" x="243.0784" y="-449.3" font-family="Times,serif" font-size="14.00" fill="#000000">[0, 1, 0, 1, 0, 0, 0, 0, 0, 0, 0, 0, 0, 0, 0, 0, 1, 1, 0, 0, 0, 0, 0, 0, 0]</text>
</g>
<!-- S24&#45;&gt;S25 -->
<g id="edge25" class="edge">
<title>S24&#45;&gt;S25</title>
<path fill="none" stroke="#000000" d="M243.0784,-521.9735C243.0784,-510.1918 243.0784,-494.5607 243.0784,-481.1581"/>
<polygon fill="#000000" stroke="#000000" points="246.5785,-481.0033 243.0784,-471.0034 239.5785,-481.0034 246.5785,-481.0033"/>
<text text-anchor="middle" x="300.0784" y="-492.8" font-family="Times,serif" font-size="14.00" fill="#000000">TAPN1.buffer_3_S3</text>
</g>
<!-- S26 -->
<g id="node27" class="node">
<title>S26</title>
<ellipse fill="none" stroke="#000000" cx="243.0784" cy="-366" rx="243.1569" ry="18"/>
<text text-anchor="middle" x="243.0784" y="-362.3" font-family="Times,serif" font-size="14.00" fill="#000000">[1, 0, 1, 0, 0, 0, 0, 0, 0, 0, 0, 0, 0, 0, 0, 0, 1, 1, 0, 0, 0, 0, 0, 0, 0]</text>
</g>
<!-- S25&#45;&gt;S26 -->
<g id="edge26" class="edge">
<title>S25&#45;&gt;S26</title>
<path fill="none" stroke="#000000" d="M243.0784,-434.9735C243.0784,-423.1918 243.0784,-407.5607 243.0784,-394.1581"/>
<polygon fill="#000000" stroke="#000000" points="246.5785,-394.0033 243.0784,-384.0034 239.5785,-394.0034 246.5785,-394.0033"/>
<text text-anchor="middle" x="288.5784" y="-405.8" font-family="Times,serif" font-size="14.00" fill="#000000">light.switch_1_9</text>
</g>
<!-- S27 -->
<g id="node28" class="node">
<title>S27</title>
<ellipse fill="none" stroke="#000000" cx="243.0784" cy="-279" rx="243.1569" ry="18"/>
<text text-anchor="middle" x="243.0784" y="-275.3" font-family="Times,serif" font-size="14.00" fill="#000000">[0, 0, 1, 0, 0, 0, 1, 0, 0, 0, 0, 0, 0, 0, 0, 0, 1, 1, 0, 0, 0, 0, 0, 0, 0]</text>
</g>
<!-- S26&#45;&gt;S27 -->
<g id="edge27" class="edge">
<title>S26&#45;&gt;S27</title>
<path fill="none" stroke="#000000" d="M243.0784,-347.9735C243.0784,-336.1918 243.0784,-320.5607 243.0784,-307.1581"/>
<polygon fill="#000000" stroke="#000000" points="246.5785,-307.0033 243.0784,-297.0034 239.5785,-307.0034 246.5785,-307.0033"/>
<text text-anchor="middle" x="280.5784" y="-318.8" font-family="Times,serif" font-size="14.00" fill="#000000">TAPN1.ICT2</text>
</g>
<!-- S28 -->
<g id="node29" class="node">
<title>S28</title>
<ellipse fill="none" stroke="#000000" cx="243.0784" cy="-192" rx="243.1569" ry="18"/>
<text text-anchor="middle" x="243.0784" y="-188.3" font-family="Times,serif" font-size="14.00" fill="#000000">[0, 0, 1, 0, 0, 0, 0, 1, 0, 0, 0, 0, 0, 0, 0, 0, 1, 1, 0, 0, 0, 0, 0, 0, 0]</text>
</g>
<!-- S27&#45;&gt;S28 -->
<g id="edge28" class="edge">
<title>S27&#45;&gt;S28</title>
<path fill="none" stroke="#000000" d="M243.0784,-260.9735C243.0784,-249.1918 243.0784,-233.5607 243.0784,-220.1581"/>
<polygon fill="#000000" stroke="#000000" points="246.5785,-220.0033 243.0784,-210.0034 239.5785,-220.0034 246.5785,-220.0033"/>
<text text-anchor="middle" x="280.5784" y="-231.8" font-family="Times,serif" font-size="14.00" fill="#000000">TAPN1.ICT3</text>
</g>
<!-- S29 -->
<g id="node30" class="node">
<title>S29</title>
<ellipse fill="none" stroke="#000000" cx="243.0784" cy="-105" rx="243.1569" ry="18"/>
<text text-anchor="middle" x="243.0784" y="-101.3" font-family="Times,serif" font-size="14.00" fill="#000000">[0, 0, 1, 0, 0, 0, 0, 0, 1, 0, 0, 0, 0, 0, 0, 0, 1, 1, 0, 0, 0, 0, 0, 0, 0]</text>
</g>
<!-- S28&#45;&gt;S29 -->
<g id="edge29" class="edge">
<title>S28&#45;&gt;S29</title>
<path fill="none" stroke="#000000" d="M243.0784,-173.9735C243.0784,-162.1918 243.0784,-146.5607 243.0784,-133.1581"/>
<polygon fill="#000000" stroke="#000000" points="246.5785,-133.0033 243.0784,-123.0034 239.5785,-133.0034 246.5785,-133.0033"/>
<text text-anchor="middle" x="280.5784" y="-144.8" font-family="Times,serif" font-size="14.00" fill="#000000">TAPN1.ICT4</text>
</g>
<!-- S30 -->
<g id="node31" class="node">
<title>S30</title>
<ellipse fill="none" stroke="#000000" cx="243.0784" cy="-18" rx="243.1569" ry="18"/>
<text text-anchor="middle" x="243.0784" y="-14.3" font-family="Times,serif" font-size="14.00" fill="#000000">[0, 0, 1, 0, 0, 0, 0, 0, 0, 1, 0, 0, 0, 0, 0, 0, 1, 1, 0, 0, 0, 0, 0, 0, 0]</text>
</g>
<!-- S29&#45;&gt;S30 -->
<g id="edge30" class="edge">
<title>S29&#45;&gt;S30</title>
<path fill="none" stroke="#000000" d="M243.0784,-86.9735C243.0784,-75.1918 243.0784,-59.5607 243.0784,-46.1581"/>
<polygon fill="#000000" stroke="#000000" points="246.5785,-46.0033 243.0784,-36.0034 239.5785,-46.0034 246.5785,-46.0033"/>
<text text-anchor="middle" x="280.5784" y="-57.8" font-family="Times,serif" font-size="14.00" fill="#000000">TAPN1.ICT5</text>
</g>
</g>
</svg>
